Coordinates
version=1
nRows=9
nColumns=36
inDegrees=yes

Units are S.I. units (second, meters, Newtons, ...)
If the header above contains a line with 'inDegrees', this indicates whether rotational values are in degrees (yes) or radians (no).

endheader
time	pelvis_tilt	pelvis_list	pelvis_rotation	pelvis_tx	pelvis_ty	pelvis_tz	hip_flexion_r	hip_adduction_r	hip_rotation_r	knee_angle_r	knee_angle_r_beta	ankle_angle_r	subtalar_angle_r	mtp_angle_r	hip_flexion_l	hip_adduction_l	hip_rotation_l	knee_angle_l	knee_angle_l_beta	ankle_angle_l	subtalar_angle_l	mtp_angle_l	lumbar_extension	lumbar_bending	lumbar_rotation	arm_flex_r	arm_add_r	arm_rot_r	elbow_flex_r	pro_sup_r	arm_flex_l	arm_add_l	arm_rot_l	elbow_flex_l	pro_sup_l
      6.81666670	    -14.86173662	     -2.25316385	      7.04349240	      0.80618739	      0.75825588	     -0.03696301	     61.92910320	      3.80088527	      9.31351106	     77.83095690	      1.35840646	     34.02878867	    -12.05882283	     -7.49999987	     65.92759806	     -9.48860727	      0.70696095	     74.23489985	      1.29564342	     22.61440774	     -7.16709531	     -7.49999987	    -33.80471199	    -10.11254246	      6.17707142	    -85.33612905	   -185.94609923	   -174.92078385	     53.95543305	     91.52950013	     86.01230698	      2.91576954	     10.11985387	     73.05456804	     88.88006192
      6.83333330	    -16.20017530	     -2.75020900	      7.32509968	      0.80286026	      0.76352884	     -0.03638869	     62.23417383	      3.44719865	      9.32571979	     76.46665308	      1.33459486	     34.07108376	    -12.12112905	     -7.49999987	     66.54877112	     -8.98581175	      0.98120637	     72.98474858	      1.27382417	     21.69399382	     -8.74374376	     -7.49999987	    -29.23886162	     -9.77585268	      4.86158258	    -79.86122579	   -182.79703095	   -171.54544757	     65.76596975	     90.62053859	     90.77984770	      7.03298314	     13.51419726	     81.30376694	     86.94790211
      6.85000000	    -17.48171615	     -3.05195071	      7.49735239	      0.80926190	      0.78036589	     -0.03173706	     61.82916155	      3.52074381	      9.60663123	     73.98674050	      1.29131222	     33.00194241	    -12.59510323	     -7.49999987	     66.25272670	     -8.81408928	      1.05179821	     70.37635135	      1.22829905	     20.09890487	     -9.31718938	     -7.49999987	    -25.02644747	    -10.05159990	      3.29132985	    -75.76112299	   -178.76799938	   -171.85454755	     85.26030735	     89.13797429	    102.94668275	      6.45235581	     18.27769755	     80.63547568	     84.92494364
      6.86666670	    -18.72323842	     -3.29347436	      7.46308921	      0.81824674	      0.79286698	     -0.03740254	     60.94583481	      3.48849638	     10.02113960	     70.68949608	      1.23376445	     31.43551436	    -13.08666058	     -7.49999987	     65.39107658	     -8.74431732	      0.69270899	     67.12777563	      1.17160070	     18.60886577	     -9.47125128	     -7.49999987	    -19.06858808	    -10.80222198	     -1.99510197	    -85.22386909	   -172.21186876	   -168.33673734	    105.20362202	     94.13582977	    117.46942752	     -4.28804292	     36.52787986	     75.10310985	     86.79554820
      6.88333330	    -19.67430562	     -3.59491389	      8.03408860	      0.83080589	      0.80493413	     -0.03829468	     59.22729861	      3.08679639	     10.14250518	     66.79562537	      1.16580359	     29.75887293	    -13.79758610	     -7.49999987	     64.06218880	     -8.59586826	      0.20776569	     63.74575093	      1.11257324	     17.61112216	     -8.22964912	     -7.49999987	    -15.05280262	     -9.99040077	     -3.09715371	    -74.03561518	   -169.79026418	   -158.66440149	     97.51175571	     91.88866314	    123.84875091	    -12.72010804	     40.84591471	     79.77649874	     84.35539492
      6.90000000	    -20.27249866	     -3.52336736	      7.73380952	      0.85384737	      0.83630680	     -0.04551852	     55.53751181	      2.78496188	     10.79401430	     60.66318130	      1.05877225	     26.65638271	    -14.67335201	     -7.49999987	     60.14483128	     -8.63519122	     -1.02919812	     58.17119320	      1.01527885	     16.04994135	     -6.52511291	     -7.49999987	    -12.47368677	     -8.54304780	     -0.75651122	    -57.69050422	   -174.42418424	   -149.07251352	     72.84554179	     87.45595977	    128.84554990	    -21.22572795	     42.90135947	     87.83111729	     77.97420549
      6.91666670	    -19.50679530	     -3.61856317	      7.79052450	      0.88046458	      0.87761352	     -0.05513652	     48.27942990	      2.09599726	     10.88151385	     51.31801221	      0.89566828	     22.27080800	    -15.57900053	     -7.49999987	     53.29108440	     -8.52504088	     -2.44586709	     50.16779836	      0.87559326	     13.12762895	     -4.62331675	     -7.49999987	     -9.16267974	     -7.98919624	      1.99251521	    -55.53460929	   -172.01649165	   -143.85704466	     68.75237262	     85.60086182	    128.25548432	    -25.76068415	     46.81471953	     89.92439182	     76.01723875
      6.93333330	    -19.04623808	     -2.99442306	      6.96428607	      0.88997486	      0.91526974	     -0.05963317	     41.60767215	      0.87763770	     11.62323395	     41.31894765	      0.72115168	     16.69505066	    -14.52547296	     -7.49999987	     45.92696821	     -7.96253804	     -4.59602175	     40.54520259	      0.70764728	      9.34045050	     -2.60597700	     -7.49999987	     -5.67027713	     -7.22412536	      7.82296740	    -54.64329078	   -166.60289666	   -135.86039244	     67.69229836	     80.36589045	    122.03555694	    -30.16281339	     46.55084160	     91.22723162	     71.52398253
      6.95000000	    -16.94208084	     -2.71366682	      6.11747694	      0.91638574	      0.96531995	     -0.07603696	     31.79106636	     -0.85799500	     11.08266108	     28.65579040	      0.50013789	     10.22928719	    -10.59946444	     -7.49999987	     36.61466846	     -7.32858470	     -6.01947286	     29.98565010	      0.52334832	      4.00033758	      0.73177588	     -7.49999987	     -3.46628795	     -5.20148997	     11.08972493	    -57.97684317	   -160.63691358	   -130.06337264	     72.78351182	     82.29778767	    118.16469476	    -39.00847377	     54.71477798	     95.27151864	     73.02366079
